<svg width="6" height="10" viewBox="0 0 6 10" fill="none" xmlns="http://www.w3.org/2000/svg">
<path d="M1.10664 0.555695C0.981914 0.552806 0.859431 0.59089 0.756221 0.664711C0.65301 0.738532 0.574201 0.844443 0.53075 0.967622C0.487298 1.0908 0.481364 1.22516 0.513771 1.35206C0.546179 1.47895 0.615318 1.59201 0.711577 1.67561L4.38438 4.98976L0.711577 8.30276C0.64499 8.3543 0.589225 8.41975 0.547774 8.49505C0.506324 8.57035 0.48008 8.65387 0.470687 8.74035C0.461294 8.82683 0.468954 8.9144 0.493188 8.99761C0.517421 9.08083 0.557705 9.1579 0.611518 9.22396C0.665331 9.29002 0.731513 9.3436 0.805919 9.38147C0.880326 9.41934 0.961355 9.44061 1.04393 9.44396C1.12651 9.44732 1.20885 9.43273 1.2858 9.40101C1.36276 9.36929 1.43267 9.32118 1.49115 9.25969L5.69619 5.47009C5.76222 5.41073 5.81525 5.33706 5.85161 5.25403C5.88797 5.171 5.9068 5.08062 5.9068 4.98918C5.9068 4.89774 5.88797 4.80737 5.85161 4.72433C5.81525 4.6413 5.76222 4.56756 5.69619 4.5082L1.49115 0.714953C1.38493 0.615571 1.24868 0.55907 1.10664 0.555549V0.555695Z" fill="#CDCDCD"/>
</svg>
