<svg version="1.1" xmlns="http://www.w3.org/2000/svg" xmlns:xlink="http://www.w3.org/1999/xlink" width="1560" height="804"><defs/><g><path fill="none" stroke="#02063B" paint-order="fill stroke markers" d=" M 20 409.6083636053332 L 21 409.9744885734898 L 22 410.33853905785406 L 23 410.7004203543177 L 24 411.06003832306516 L 25 411.4172994130629 L 26 411.77211068639593 L 27 412.1243798424448 L 28 412.4740152418964 L 29 412.82092593058314 L 30 413.1650216631441 L 31 413.5062129265009 L 32 413.84441096314384 L 33 414.17952779422166 L 34 414.5114762424277 L 35 414.8401699546788 L 36 415.16552342457885 L 37 415.48745201466244 L 38 415.80587197841277 L 39 416.12070048204697 L 40 416.431855626065 L 41 416.73925646655454 L 42 417.0428230362481 L 43 417.34247636532547 L 44 417.63813850195703 L 45 417.92973253258214 L 46 418.2171826019175 L 47 418.5004139326899 L 48 418.7793528450892 L 49 419.0539267759349 L 50 419.3240642975531 L 51 419.5896951363577 L 52 419.850750191131 L 53 420.10716155100016 L 54 420.3588625131033 L 55 420.6057875999415 L 56 420.8478725764123 L 57 421.08505446651986 L 58 421.3172715697573 L 59 421.5444634771575 L 60 421.76657108700823 L 61 421.9835366202266 L 62 422.1953036353895 L 63 422.40181704341694 L 64 422.60302312190214 L 65 422.7988695290875 L 66 422.9893053174803 L 67 423.17428094710664 L 68 423.35374829839844 L 69 423.52766068471146 L 70 423.69597286447015 L 71 423.858641052937 L 72 424.01562293360263 L 73 424.1668776691941 L 74 424.31236591229805 L 75 424.45204981559687 L 76 424.58589304171403 L 77 424.71386077266715 L 78 424.83591971892525 L 79 424.9520381280689 L 80 425.06218579305045 L 81 425.1663340600515 L 82 425.2644558359376 L 83 425.35652559530587 L 84 425.4425193871252 L 85 425.5224148409669 L 86 425.59619117282443 L 87 425.6638291905196 L 88 425.7253112986957 L 89 425.78062150339446 L 90 425.829745416217 L 91 425.87267025806653 L 92 425.90938486247285 L 93 425.9398796784973 L 94 425.9641467732171 L 95 425.9821798337893 L 96 425.99397416909267 L 97 425.9995267109483 L 98 425.99883601491786 L 99 425.99190226067896 L 100 425.9787272519787 L 101 425.95931441616443 L 102 425.93366880329205 L 103 425.90179708481236 L 104 425.8637075518356 L 105 425.8194101129745 L 106 425.7689162917665 L 107 425.71223922367653 L 108 425.6493936526794 L 109 425.58039592742466 L 110 425.50526399698333 L 111 425.424017406179 L 112 425.33667729050325 L 113 425.24326637061745 L 114 425.1438089464421 L 115 425.0383308908359 L 116 424.92685964286443 L 117 424.809424200663 L 118 424.6860551138924 L 119 424.556784475792 L 120 424.4216459148312 L 121 424.2806745859607 L 122 424.133907161468 L 123 423.98138182143714 L 124 423.82313824381635 L 125 423.6592175940967 L 126 423.48966251460274 L 127 423.31451711340003 L 128 423.13382695282064 L 129 422.9476390376105 L 130 422.75600180270163 L 131 422.55896510061245 L 132 422.35658018847886 L 133 422.14889971472047 L 134 421.9359777053443 L 135 421.71786954989096 L 136 421.4946319870251 L 137 421.2663230897757 L 138 421.03300225042886 L 139 420.7947301650775 L 140 420.551568817832 L 141 420.3035814646954 L 142 420.0508326171081 L 143 419.793388025166 L 144 419.531314660516 L 145 419.26468069893417 L 146 418.99355550259054 L 147 418.718009602005 L 148 418.4381146776998 L 149 418.15394354155217 L 150 417.86557011785345 L 151 417.5730694240782 L 152 417.2765175513692 L 153 416.97599164474303 L 154 416.6715698830217 L 155 416.36333145849494 L 156 416.05135655631966 L 157 415.73572633365984 L 158 415.41652289857495 L 159 415.09382928865995 L 160 414.7677294494441 L 161 414.4383082125533 L 162 414.1056512736418 L 163 413.7698451700998 L 164 413.43097725854113 L 165 413.08913569207846 L 166 412.74440939739134 L 167 412.39688805159255 L 168 412.04666205889947 L 169 411.6938225271166 L 170 411.3384612439346 L 171 410.9806706530525 L 172 410.6205438301297 L 173 410.258174458573 L 174 409.893656805166 L 175 409.5270856955463 L 176 409.1585564895377 L 177 408.7881650563434 L 178 408.41600774960636 L 179 408.04218138234404 L 180 407.66678320176317 L 181 407.2899108639623 L 182 406.9116624085272 L 183 406.53213623302696 L 184 406.15143106741675 L 185 405.7696459483544 L 186 405.3868801934368 L 187 405.0032333753635 L 188 404.6188052960338 L 189 404.2336959605845 L 190 403.8480055513742 L 191 403.4618344019222 L 192 403.07528297080745 L 193 402.6884518155356 L 194 402.30144156637954 L 195 401.9143529002017 L 196 401.52728651426406 L 197 401.14034310003245 L 198 400.75362331698284 L 199 400.3672277664159 L 200 399.9812569652864 L 201 399.5958113200546 L 202 399.210991100567 L 203 398.82689641397155 L 204 398.44362717867625 L 205 398.06128309835594 L 206 397.6799636360158 L 207 397.29976798811674 L 208 396.9207950587706 L 209 396.5431434340111 L 210 396.16691135614775 L 211 395.7921966982091 L 212 395.4190969384821 L 213 395.0477091351537 L 214 394.6781299010628 L 215 394.31045537856676 L 216 393.9447812145314 L 217 393.5812025354491 L 218 393.2198139226927 L 219 392.860709387911 L 220 392.50398234857283 L 221 392.1497256036652 L 222 391.7980313095526 L 223 391.44899095600334 L 224 391.10269534238984 L 225 390.7592345540674 L 226 390.41869793894 L 227 390.081174084217 L 228 389.7467507933681 L 229 389.41551506328227 L 230 389.0875530616362 L 231 388.7629501044787 L 232 388.4417906340368 L 233 388.12415819674857 L 234 387.8101354215296 L 235 387.49980399827774 L 236 387.1932446566226 L 237 386.89053714492405 L 238 386.591760209527 L 239 386.2969915742759 L 240 386.0063079202959 L 241 385.719784866045 L 242 385.43749694764256 L 243 385.1595175994795 L 244 384.88591913511505 L 245 384.6167727284653 L 246 384.3521483952878 L 247 384.09211497496767 L 248 383.83674011260973 L 249 383.5860902414414 L 250 383.3402305655308 L 251 383.09922504282423 L 252 382.86313636850855 L 253 382.6320259587014 L 254 382.4059539344744 L 255 382.1849791062135 L 256 381.96915895831984 L 257 381.7585496342557 L 258 381.5532059219395 L 259 381.35318123949315 L 260 381.158527621346 L 261 380.9692957046984 L 262 380.7855347163491 L 263 380.6072924598893 L 264 380.43461530326715 L 265 380.26754816672536 L 266 380.1061345111159 L 267 379.9504163265938 L 268 379.80043412169425 L 269 379.6562269127943 L 270 379.5178322139633 L 271 379.38528602720396 L 272 379.258622833087 L 273 379.1378755817809 L 274 379.0230756844809 L 275 378.91425300523684 L 276 378.8114358531853 L 277 378.7146509751843 L 278 378.6239235488563 L 279 378.5392771760377 L 280 378.4607338766394 L 281 378.3883140829187 L 282 378.32203663416374 L 283 378.26191877179286 L 284 378.2079761348692 L 285 378.1602227560328 L 286 378.1186710578494 L 287 378.0833318495796 L 288 378.0542143243666 L 289 378.03132605684453 L 290 378.0146730011683 L 291 378.0042594894645 L 292 378.0000882307046 L 293 378.00216030999985 L 294 378.01047518831956 L 295 378.02503070263094 L 296 378.0458230664619 L 297 378.07284687088594 L 298 378.10609508592955 L 299 378.14555906240065 L 300 378.1912285341387 L 301 378.24309162068545 L 302 378.3011348303754 L 303 378.3653430638455 L 304 378.43569961796317 L 305 378.5121861901716 L 306 378.5947828832505 L 307 378.68346821049283 L 308 378.77821910129376 L 309 378.8790109071526 L 310 378.9858174080847 L 311 379.09861081944246 L 312 379.21736179914313 L 313 379.3420394553018 L 314 379.4726113542679 L 315 379.609043529062 L 316 379.75130048821245 L 317 379.899345224988 L 318 380.05313922702453 L 319 380.212642486344 L 320 380.3778135097617 L 321 380.54860932968074 L 322 380.72498551526934 L 323 380.9068961840192 L 324 381.0942940136813 L 325 381.2871302545763 L 326 381.4853547422765 L 327 381.6889159106553 L 328 381.8977608053018 L 329 382.11183509729636 L 330 382.3310830973437 L 331 382.5554477702598 L 332 382.7848707498093 L 333 383.01929235388866 L 334 383.2586516000519 L 335 383.50288622137475 L 336 383.7519326826525 L 337 384.0057261969283 L 338 384.26420074234665 L 339 384.5272890793285 L 340 384.79492276806286 L 341 385.0670321863106 L 342 385.34354654751627 L 343 385.62439391922237 L 344 385.9095012417818 L 345 386.19879434736373 L 346 386.4921979792475 L 347 386.78963581140005 L 348 387.09103046833116 L 349 387.39630354522217 L 350 387.705375628322 L 351 388.018166315606 L 352 388.3345942376917 L 353 388.65457707900606 L 354 388.97803159919937 L 355 389.30487365479917 L 356 389.6350182210994 L 357 389.96837941427873 L 358 390.3048705137423 L 359 390.64440398468145 L 360 390.98689150084476 L 361 391.33224396751535 L 362 391.68037154468817 L 363 392.03118367044056 L 364 392.38458908449144 L 365 392.74049585194155 L 366 393.09881138718947 L 367 393.45944247801685 L 368 393.82229530983653 L 369 394.18727549009765 L 370 394.55428807284073 L 371 394.92323758339717 L 372 395.2940280432258 L 373 395.66656299488074 L 374 396.0407455271041 L 375 396.41647830003626 L 376 396.79366357053783 L 377 397.1722032176167 L 378 397.55199876795325 L 379 397.9329514215171 L 380 398.31496207726883 L 381 398.69793135894054 L 382 399.0817596408871 L 383 399.46634707400324 L 384 399.8515936116979 L 385 400.23739903592065 L 386 400.6236629832321 L 387 401.010284970913 L 388 401.39716442310305 L 389 401.7842006969654 L 390 402.1712931088675 L 391 402.558340960573 L 392 402.94524356543764 L 393 403.3319002746015 L 394 403.718210503172 L 395 404.10407375639 L 396 404.48938965577275 L 397 404.8740579652259 L 398 405.25797861711936 L 399 405.64105173831854 L 400 406.0231776761657 L 401 406.40425702440325 L 402 406.7841906490335 L 403 407.1628797141076 L 404 407.54022570743604 L 405 407.9161304662163 L 406 408.2904962025688 L 407 408.66322552897503 L 408 409.03422148361244 L 409 409.40338755557775 L 410 409.77062770999356 L 411 410.13584641299065 L 412 410.49894865656034 L 413 410.85983998326964 L 414 411.2184265108338 L 415 411.57461495653837 L 416 411.9283126615062 L 417 412.2794276148014 L 418 412.6278684773654 L 419 412.9735446057775 L 420 413.3163660758351 L 421 413.6562437059467 L 422 413.99308908033123 L 423 414.3268145720189 L 424 414.65733336564637 L 425 414.9845594800407 L 426 415.30840779058667 L 427 415.62879405137136 L 428 415.9456349170993 L 429 416.2588479647745 L 430 416.56835171514143 L 431 416.87406565388164 L 432 417.17591025255814 L 433 417.4738069893045 L 434 417.7676783692509 L 435 418.0574479446845 L 436 418.34304033493555 L 437 418.62438124598776 L 438 418.9013974898047 L 439 419.1740170033691 L 440 419.4421688674292 L 441 419.7057833249479 L 442 419.96479179924904 L 443 420.2191269118574 L 444 420.468722500026 L 445 420.713513633948 L 446 420.9534366336477 L 447 421.1884290855458 L 448 421.418429858696 L 449 421.64337912068754 L 450 421.8632183532099 L 451 422.077890367276 L 452 422.287339318099 L 453 422.49151071962007 L 454 422.6903514586823 L 455 422.8838098088474 L 456 423.071835443852 L 457 423.2543794506997 L 458 423.4313943423847 L 459 423.60283407024576 L 460 423.76865403594485 L 461 423.9288111030691 L 462 424.0832636083524 L 463 424.2319713725135 L 464 424.37489571070836 L 465 424.5119994425937 L 466 424.64324690199896 L 467 424.7686039462045 L 468 424.8880379648236 L 469 425.0015178882856 L 470 425.10901419591846 L 471 425.2104989236283 L 472 425.3059456711736 L 473 425.39532960903364 L 474 425.47862748486693 L 475 425.5558176295607 L 476 425.6268799628673 L 477 425.69179599862844 L 478 425.7505488495839 L 479 425.8031232317645 L 480 425.84950546846824 L 481 425.8896834938182 L 482 425.9236468559011 L 483 425.95138671948655 L 484 425.9728958683252 L 485 425.98816870702626 L 486 425.9972012625128 L 487 425.9999911850554 L 488 425.99653774888355 L 489 425.9868418523743 L 490 425.97090601781855 L 491 425.9487343907649 L 492 425.92033273894145 L 493 425.88570845075503 L 494 425.8448705333695 L 495 425.79782961036227 L 496 425.7445979189612 L 497 425.68518930686054 L 498 425.6196192286193 L 499 425.54790474164025 L 500 425.47006450173313 L 501 425.3861187582612 L 502 425.2960893488737 L 503 425.1999996938249 L 504 425.0978747898818 L 505 424.98974120382115 L 506 424.87562706551853 L 507 424.7555620606307 L 508 424.6295774228732 L 509 424.49770592589476 L 510 424.35998187475224 L 511 424.2164410969861 L 512 424.0671209333003 L 513 423.9120602278485 L 514 423.7512993181291 L 515 423.58488002449184 L 516 423.4128456392589 L 517 423.2352409154623 L 518 423.05211205520254 L 519 422.86350669762885 L 520 422.669473906547 L 521 422.4700641576553 L 522 422.2653293254142 L 523 422.0553226695517 L 524 421.8400988212079 L 525 421.6197137687238 L 526 421.39422484307624 L 527 421.1636907029638 L 528 420.9281713195473 L 529 420.6877279608491 L 530 420.4424231758146 L 531 420.1923207780409 L 532 419.93748582917624 L 533 419.6779846219949 L 534 419.4138846631518 L 535 419.1452546556214 L 536 418.87216448082506 L 537 418.59468518045236 L 538 418.3128889379801 L 539 418.0268490598947 L 540 417.73663995662196 L 541 417.44233712317026 L 542 417.144017119491 L 543 416.84175755056253 L 544 416.53563704620177 L 545 416.22573524060954 L 546 415.91213275165455 L 547 415.5949111599015 L 548 415.2741529873886 L 549 414.9499416761603 L 550 414.62236156656064 L 551 414.29149787529315 L 552 413.95743667325235 L 553 413.62026486313334 L 554 413.280070156825 L 555 412.9369410525925 L 556 412.59096681205546 L 557 412.24223743696723 L 558 411.89084364580214 L 559 411.53687685015586 L 560 411.1804291309653 L 561 410.82159321455526 L 562 410.46046244851607 L 563 410.09713077742026 L 564 409.73169271838407 L 565 409.3642433364796 L 566 408.99487822000435 L 567 408.6236934556153 L 568 408.2507856033326 L 569 407.8762516714207 L 570 407.5001890911522 L 571 407.1226956914627 L 572 406.74386967350085 L 573 406.36380958508306 L 574 405.9826142950566 L 575 405.60038296758023 L 576 405.21721503632745 L 577 404.8332101786201 L 578 404.44846828949795 L 579 404.06308945573215 L 580 403.67717392978875 L 581 403.29082210374884 L 582 402.90413448319265 L 583 402.5172116610541 L 584 402.13015429145224 L 585 401.7430630635076 L 586 401.35603867514834 L 587 400.96918180691523 L 588 400.5825930957701 L 589 400.1963731089166 L 590 399.8106223176382 L 591 399.425441071162 L 592 399.0409295705537 L 593 398.6571878426511 L 594 398.2743157140435 L 595 397.8924127851024 L 596 397.5115784040719 L 597 397.1319116412238 L 598 396.75351126308567 L 599 396.37647570674784 L 600 396.00090305425573 L 601 395.62689100709497 L 602 395.2545368607752 L 603 394.8839374795196 L 604 394.5151892710669 L 605 394.1483881615914 L 606 393.7836295707492 L 607 393.4210083868554 L 608 393.06061894220005 L 609 392.7025549885084 L 610 392.3469096725523 L 611 391.99377551191924 L 612 391.6432443709446 L 613 391.2954074368141 L 614 390.95035519584246 L 615 390.608177409934 L 616 390.2689630932324 L 617 389.93280048896423 L 618 389.5997770464835 L 619 389.2699793985224 L 620 388.9434933386551 L 621 388.6204037989788 L 622 388.30079482801995 L 623 387.9847495688697 L 624 387.67235023755495 L 625 387.3636781016509 L 626 387.05881345913997 L 627 386.7578356175231 L 628 386.4608228731886 L 629 386.1678524910442 L 630 385.8790006844174 L 631 385.5943425952294 L 632 385.3139522744475 L 633 385.0379026628214 L 634 384.76626557190866 L 635 384.4991116653936 L 636 384.23651044070465 L 637 383.97853021093545 L 638 383.72523808707365 L 639 383.4766999605432 L 640 383.2329804860626 L 641 382.99414306482635 L 642 382.760249828011 L 643 382.5313616206132 L 644 382.3075379856208 L 645 382.0888371485235 L 646 381.8753160021663 L 647 381.6670300919492 L 648 381.46403360137765 L 649 381.2663793379671 L 650 381.0741187195061 L 651 380.8873017606799 L 652 380.7059770600601 L 653 380.5301917874618 L 654 380.3599916716733 L 655 380.1954209885598 L 656 380.0365225495458 L 657 379.8833376904778 L 658 379.73590626087156 L 659 379.5942666135453 L 660 379.4584555946428 L 661 379.32850853404835 L 662 379.20445923619565 L 663 379.0863399712742 L 664 378.97418146683464 L 665 378.86801289979496 L 666 378.7678618888507 L 667 378.67375448729 L 668 378.58571517621624 L 669 378.5037668581796 L 670 378.4279308512189 L 671 378.3582268833161 L 672 378.29467308726447 L 673 378.23728599595114 L 674 378.18608053805644 L 675 378.14107003417035 L 676 378.1022661933272 L 677 378.06967910995985 L 678 378.04331726127344 L 679 378.0231875050405 L 680 378.00929507781655 L 681 378.0016435935783 L 682 378.0002350427831 L 683 378.0050697918515 L 684 378.01614658307153 L 685 378.0334625349264 L 686 378.05701314284363 L 687 378.08679228036704 L 688 378.12279220075055 L 689 378.1650035389734 L 690 378.2134153141763 L 691 378.268014932518 L 692 378.32878819045146 L 693 378.3957192784188 L 694 378.4687907849641 L 695 378.54798370126247 L 696 378.6332774260654 L 697 378.7246497710596 L 698 378.8220769666396 L 699 378.92553366809057 L 700 379.03499296218183 L 701 379.1504263741681 L 702 379.2718038751966 L 703 379.3990938901192 L 704 379.5322633057061 L 705 379.6712774792599 L 706 379.8161002476277 L 707 379.96669393660835 L 708 380.1230193707534 L 709 380.2850358835578 L 710 380.45270132803904 L 711 380.6259720877014 L 712 380.8048030878823 L 713 380.9891478074777 L 714 381.1789582910446 L 715 381.3741851612757 L 716 381.57477763184494 L 717 381.78068352061854 L 718 381.9918492632299 L 719 382.20821992701394 L 720 382.4297392252971 L 721 382.65634953203977 L 722 382.88799189682726 L 723 383.1246060602051 L 724 383.3661304693549 L 725 383.61250229410666 L 726 383.8636574432836 L 727 384.1195305813747 L 728 384.380055145531 L 729 384.6451633628814 L 730 384.91478626816325 L 731 385.1888537216626 L 732 385.46729442746056 L 733 385.75003595198024 L 734 386.0370047428296 L 735 386.32812614793534 L 736 386.62332443496285 L 737 386.9225228110174 L 738 387.22564344262094 L 739 387.5326074759596 L 740 387.84333505739676 L 741 388.15774535424646 L 742 388.4757565758008 L 743 388.79728599460736 L 744 389.12224996798955 L 745 389.4505639598057 L 746 389.78214256244024 L 747 390.1168995190215 L 748 390.45474774586074 L 749 390.79559935510605 L 750 391.1393656776056 L 751 391.48595728597365 L 752 391.8352840178548 L 753 392.18725499937824 L 754 392.54177866879814 L 755 392.89876280031217 L 756 393.25811452805345 L 757 393.61974037024845 L 758 393.98354625353534 L 759 394.34943753743636 L 760 394.71731903897756 L 761 395.08709505744974 L 762 395.4586693993039 L 763 395.83194540317515 L 764 396.20682596502814 L 765 396.5832135634178 L 766 396.96101028485856 L 767 397.3401178492953 L 768 397.72043763567035 L 769 398.10187070757854 L 770 398.4843178390046 L 771 398.8676795401355 L 772 399.25185608324233 L 773 399.63674752862306 L 774 400.02225375060095 L 775 400.40827446357116 L 776 400.79470924808925 L 777 401.1814575769942 L 778 401.5684188415594 L 779 401.9554923776652 L 780 402.34257749198576 L 781 402.72957348818323 L 782 403.11637969310283 L 783 403.50289548296223 L 784 403.88902030952755 L 785 404.2746537262703 L 786 404.65969541449715 L 787 405.0440452094472 L 788 405.4276031263487 L 789 405.810269386429 L 790 406.19194444287115 L 791 406.57252900670994 L 792 406.951924072661 L 793 407.3300309448759 L 794 407.70675126261693 L 795 408.081987025845 L 796 408.4556406207128 L 797 408.82761484495853 L 798 409.19781293319187 L 799 409.5661385820665 L 800 409.9324959753328 L 801 410.2967898087631 L 802 410.65892531494416 L 803 411.0188082879303 L 804 411.3763451077497 L 805 411.73144276475927 L 806 412.0840088838394 L 807 412.4339517484251 L 808 412.781180324365 L 809 413.1256042836026 L 810 413.46713402767483 L 811 413.80568071101965 L 812 414.14115626408875 L 813 414.4734734162575 L 814 414.8025457185281 L 815 415.128287566018 L 816 415.4506142202294 L 817 415.76944183109276 L 818 416.08468745878014 L 819 416.3962690952806 L 820 416.70410568573436 L 821 417.0081171495176 L 822 417.30822440107556 L 823 417.6043493704951 L 824 417.8964150238143 L 825 418.18434538306184 L 826 418.468065546022 L 827 418.74750170571957 L 828 419.02258116962037 L 829 419.293232378541 L 830 419.5593849252647 L 831 419.82096957285677 L 832 420.07791827267596 L 833 420.3301641820767 L 834 420.5776416817976 L 835 420.8202863930315 L 836 421.058035194173 L 837 421.2908262372389 L 838 421.51859896395763 L 839 421.7412941215224 L 840 421.9588537780056 L 841 422.1712213374291 L 842 422.378341554487 L 843 422.58016054891743 L 844 422.7766258195186 L 845 422.96768625780686 L 846 423.1532921613117 L 847 423.3333952465057 L 848 423.50794866136454 L 849 423.6769069975557 L 850 423.84022630225047 L 851 423.99786408955805 L 852 424.1497793515779 L 853 424.29593256906725 L 854 424.4362857217221 L 855 424.5708022980673 L 856 424.69944730495513 L 857 424.82218727666805 L 858 424.9389902836247 L 859 425.049825940686 L 860 425.1546654150593 L 861 425.25348143379944 L 862 425.3462482909032 L 863 425.4329418539964 L 864 425.51353957061195 L 865 425.5880204740564 L 866 425.65636518886447 L 867 425.71855593583916 L 868 425.7745765366769 L 869 425.8244124181763 L 870 425.868050616029 L 871 425.9054797781924 L 872 425.9366901678427 L 873 425.9616736659078 L 874 425.9804237731795 L 875 425.9929356120041 L 876 425.99920592755126 L 877 425.9992330886609 L 878 425.9930170882673 L 879 425.98055954340106 L 880 425.96186369476845 L 881 425.9369344059083 L 882 425.90577816192683 L 883 425.86840306781073 L 884 425.8248188463185 L 885 425.7750368354514 L 886 425.7190699855037 L 887 425.65693285569427 L 888 425.5886416103785 L 889 425.51421401484396 L 890 425.4336694306884 L 891 425.3470288107833 L 892 425.2543146938232 L 893 425.1555511984624 L 894 425.05076401704065 L 895 424.9399804088998 L 896 424.8232291932923 L 897 424.7005407418843 L 898 424.57194697085464 L 899 424.43748133259237 L 900 424.2971788069943 L 901 424.1510758923652 L 902 423.99921059592356 L 903 423.8416224239139 L 904 423.67835237132994 L 905 423.50944291124995 L 906 423.334937983788 L 907 423.1548829846633 L 908 422.96932475339077 L 909 422.77831156109653 L 910 422.5818930979605 L 911 422.3801204602899 L 912 422.1730461372272 L 913 421.96072399709533 L 914 421.7432092733849 L 915 421.5205585503852 L 916 421.2928297484647 L 917 421.0600821090035 L 918 420.8223761789822 L 919 420.5797737952316 L 920 420.3323380683458 L 921 420.0801333662652 L 922 419.82322529753174 L 923 419.56168069422114 L 924 419.2955675945574 L 925 419.0249552252135 L 926 418.7499139833026 L 927 418.47051541806485 L 928 418.1868322122548 L 929 417.8989381632334 L 930 417.6069081637708 L 931 417.31081818256325 L 932 417.0107452444709 L 933 416.7067674104805 L 934 416.39896375739846 L 935 416.08741435728007 L 936 415.7722002565994 L 937 415.4534034551657 L 938 415.1311068847924 L 939 414.80539438772286 L 940 414.47635069481964 L 941 414.14406140352287 L 942 413.8086129555828 L 943 413.4700926145727 L 944 413.1285884431883 L 945 412.78418928033904 L 946 412.43698471803765 L 947 412.0870650780936 L 948 411.73452138861654 L 949 411.37944536033683 L 950 411.02192936274736 L 951 410.66206640007465 L 952 410.29995008708494 L 953 409.9356746247312 L 954 409.56933477564735 L 955 409.2010258394972 L 956 408.83084362818283 L 957 408.4588844409203 L 958 408.0852450391881 L 959 407.710022621556 L 960 407.33331479839933 L 961 406.95521956650714 L 962 406.57583528358884 L 963 406.1952606426878 L 964 405.813594646507 L 965 405.4309365816548 L 966 405.04738599281626 L 967 404.6630426568575 L 968 404.27800655687025 L 969 403.89237785616166 L 970 403.5062568721981 L 971 403.11974405050853 L 972 402.7329399385547 L 973 402.3459451595745 L 974 401.95886038640595 L 975 401.57178631529814 L 976 401.18482363971634 L 977 400.7980730241471 L 978 400.4116350779118 L 979 400.025610328994 L 980 399.64009919788816 L 981 399.255201971476 L 982 398.8710187769383 L 983 398.4876495557072 L 984 398.10519403746827 L 985 397.7237517142159 L 986 397.3434218143721 L 987 396.96430327697294 L 988 396.58649472593083 L 989 396.21009444437794 L 990 395.8352003490994 L 991 395.4619099650608 L 992 395.0903204000384 L 993 394.7205283193573 L 994 394.35262992074473 L 995 393.98672090930563 L 996 393.6228964726256 L 997 393.2612512560089 L 998 392.90187933785734 L 999 392.5448742051968 L 1000 392.1903287293575 L 1001 391.8383351418143 L 1002 391.48898501019397 L 1003 391.14236921445433 L 1004 390.79857792324304 L 1005 390.45770057044115 L 1006 390.1198258318974 L 1007 389.78504160236054 L 1008 389.45343497261405 L 1009 389.1250922068205 L 1010 388.8000987200808 L 1011 388.47853905621423 L 1012 388.1604968657652 L 1013 387.84605488424256 L 1014 387.5352949105966 L 1015 387.2282977859398 L 1016 386.92514337251714 L 1017 386.62591053293045 L 1018 386.33067710962314 L 1019 386.0395199046304 L 1020 385.7525146595997 L 1021 385.46973603608757 L 1022 385.191257596137 L 1023 384.91715178314104 L 1024 384.64748990299745 L 1025 384.3823421055589 L 1026 384.1217773663847 L 1027 383.865863468797 L 1028 383.6146669862478 L 1029 383.3682532650007 L 1030 383.12668640713144 L 1031 382.8900292538526 L 1032 382.65834336916595 L 1033 382.43168902384724 L 1034 382.21012517976743 L 1035 381.99370947455407 L 1036 381.782498206598 L 1037 381.57654632040726 L 1038 381.37590739231416 L 1039 381.1806336165379 L 1040 380.99077579160667 L 1041 380.806383307143 L 1042 380.6275041310156 L 1043 380.4541847968608 L 1044 380.2864703919775 L 1045 380.124404545598 L 1046 379.96802941753845 L 1047 379.8173856872312 L 1048 379.6725125431425 L 1049 379.53344767257823 L 1050 379.40022725187964 L 1051 379.27288593701246 L 1052 379.15145685455184 L 1053 379.0359715930643 L 1054 378.92646019489064 L 1055 378.82295114833056 L 1056 378.7254713802318 L 1057 378.63404624898527 L 1058 378.54869953792854 L 1059 378.46945344915855 L 1060 378.39632859775617 L 1061 378.3293440064233 L 1062 378.2685171005343 L 1063 378.2138637036032 L 1064 378.16539803316675 L 1065 378.12313269708665 L 1066 378.0870786902691 L 1067 378.05724539180505 L 1068 378.0336405625299 L 1069 378.016270343005 L 1070 378.00513925191996 L 1071 378.0002501849173 L 1072 378.0016044138391 L 1073 378.0092015863962 L 1074 378.02303972625987 L 1075 378.0431152335757 L 1076 378.06942288590045 L 1077 378.10195583956033 L 1078 378.14070563143144 L 1079 378.18566218114125 L 1080 378.23681379369106 L 1081 378.2941471624982 L 1082 378.35764737285774 L 1083 378.42729790582223 L 1084 378.5030806424992 L 1085 378.5849758687642 L 1086 378.6729622803898 L 1087 378.7670169885871 L 1088 378.86711552596034 L 1089 378.9732318528719 L 1090 379.08533836421594 L 1091 379.2034058965999 L 1092 379.327403735931 L 1093 379.4572996254061 L 1094 379.59305977390306 L 1095 379.7346488647711 L 1096 379.8820300650182 L 1097 380.0351650348929 L 1098 380.19401393785745 L 1099 380.35853545095165 L 1100 380.52868677554227 L 1101 380.7044236484565 L 1102 380.8857003534968 L 1103 381.07246973333366 L 1104 381.26468320177264 L 1105 381.4622907563941 L 1106 381.6652409915604 L 1107 381.8734811117888 L 1108 382.0869569454858 L 1109 382.30561295903897 L 1110 382.52939227126376 L 1111 382.7582366682006 L 1112 382.9920866182584 L 1113 383.2308812877013 L 1114 383.474558556474 L 1115 383.72305503436155 L 1116 383.97630607747976 L 1117 384.2342458050917 L 1118 384.49680711674574 L 1119 384.7639217097312 L 1120 385.0355200968468 L 1121 385.31153162447663 L 1122 385.59188449097024 L 1123 385.8765057653212 L 1124 386.1653214061393 L 1125 386.4582562809116 L 1126 386.75523418554747 L 1127 387.0561778642023 L 1128 387.361009029375 L 1129 387.6696483822733 L 1130 387.9820156334431 L 1131 388.29802952365446 L 1132 388.6176078450408 L 1133 388.9406674624842 L 1134 389.26712433524216 L 1135 389.5968935388101 L 1136 389.9298892870136 L 1137 390.26602495432473 L 1138 390.6052130983968 L 1139 390.94736548281185 L 1140 391.29239310003425 L 1141 391.6402061945651 L 1142 391.99071428629145 L 1143 392.34382619402356 L 1144 392.69945005921505 L 1145 393.0574933698585 L 1146 393.41786298455213 L 1147 393.7804651567293 L 1148 394.1452055590457 L 1149 394.51198930791764 L 1150 394.88072098820544 L 1151 395.25130467803433 L 1152 395.6236439737475 L 1153 395.9976420149851 L 1154 396.37320150988086 L 1155 396.7502247603721 L 1156 397.1286136876145 L 1157 397.5082698574968 L 1158 397.8890945062469 L 1159 398.27098856612486 L 1160 398.65385269119366 L 1161 399.0375872831639 L 1162 399.42209251730264 L 1163 399.8072683684021 L 1164 400.19301463680034 L 1165 400.57923097444683 L 1166 400.9658169110072 L 1167 401.3526718799999 L 1168 401.7396952449568 L 1169 402.12678632560363 L 1170 402.5138444240504 L 1171 402.9007688509871 L 1172 403.28745895187706 L 1173 403.67381413314126 L 1174 404.0597338883266 L 1175 404.44511782425184 L 1176 404.8298656871236 L 1177 405.2138773886166 L 1178 405.59705303191083 L 1179 405.9792929376784 L 1180 406.360497670014 L 1181 406.7405680623027 L 1182 407.11940524301673 L 1183 407.49691066143583 L 1184 407.8729861132847 L 1185 408.2475337662795 L 1186 408.62045618557806 L 1187 408.9916563591265 L 1188 409.36103772289624 L 1189 409.72850418600365 L 1190 410.09396015570775 L 1191 410.45731056227703 L 1192 410.8184608837216 L 1193 411.1773171703817 L 1194 411.53378606936775 L 1195 411.8877748488455 L 1196 412.2391914221589 L 1197 412.5879443717859 L 1198 412.9339429731196 L 1199 413.2770972180692 L 1200 413.617317838475 L 1201 413.95451632933054 L 1202 414.28860497180636 L 1203 414.61949685606885 L 1204 414.94710590388945 L 1205 415.2713468910366 L 1206 415.5921354694465 L 1207 415.9093881891646 L 1208 416.2230225200553 L 1209 416.53295687327045 L 1210 416.83911062247444 L 1211 417.14140412481817 L 1212 417.43975874165716 L 1213 417.73409685900896 L 1214 418.02434190774323 L 1215 418.31041838350086 L 1216 418.5922518663355 L 1217 418.86976904007304 L 1218 419.14289771138425 L 1219 419.41156682856507 L 1220 419.67570650002017 L 1221 419.93524801244433 L 1222 420.1901238486975 L 1223 420.440267705369 L 1224 420.6856145100255 L 1225 420.92610043813886 L 1226 421.16166292968967 L 1227 421.3922407054415 L 1228 421.61777378288207 L 1229 421.8382034918272 L 1230 422.0534724896831 L 1231 422.26352477636357 L 1232 422.46830570885805 L 1233 422.6677620154461 L 1234 422.86184180955576 L 1235 423.05049460326126 L 1236 423.2336713204169 L 1237 423.41132430942383 L 1238 423.583407355626 L 1239 423.7498756933325 L 1240 423.91068601746304 L 1241 424.0657964948132 L 1242 424.21516677493673 L 1243 424.3587580006428 L 1244 424.49653281810396 L 1245 424.6284553865733 L 1246 424.75449138770836 L 1247 424.8746080344986 L 1248 424.9887740797943 L 1249 425.0969598244358 L 1250 425.19913712497896 L 1251 425.2952794010164 L 1252 425.3853616420925 L 1253 425.46936041420923 L 1254 425.54725386592247 L 1255 425.6190217340265 L 1256 425.68464534882503 L 1257 425.7441076389882 L 1258 425.79739313599333 L 1259 425.84448797814895 L 1260 425.8853799142009 L 1261 425.9200583065192 L 1262 425.9485141338654 L 1263 425.9707399937394 L 1264 425.9867301043051 L 1265 425.9964803058944 L 1266 425.99998806208947 L 1267 425.9972524603825 L 1268 425.9882742124131 L 1269 425.9730556537829 L 1270 425.9516007434485 L 1271 425.9239150626912 L 1272 425.890005813665 L 1273 425.84988181752357 L 1274 425.80355351212484 L 1275 425.751032949316 L 1276 425.6923337917987 L 1277 425.62747130957416 L 1278 425.5564623759712 L 1279 425.4793254632567 L 1280 425.39608063783055 L 1281 425.30674955500507 L 1282 425.2113554533718 L 1283 425.1099231487564 L 1284 425.00247902776294 L 1285 424.88905104090946 L 1286 424.76966869535727 L 1287 424.6443630472347 L 1288 424.5131666935584 L 1289 424.37611376375327 L 1290 424.2332399107742 L 1291 424.08458230183135 L 1292 423.93017960872135 L 1293 423.7700719977672 L 1294 423.6043011193696 L 1295 423.4329100971719 L 1296 423.25594351684157 L 1297 423.07344741447247 L 1298 422.8854692646082 L 1299 422.69205796789265 L 1300 422.49326383834864 L 1301 422.2891385902893 L 1302 422.07973532486534 L 1303 421.865108516251 L 1304 421.6453139974732 L 1305 421.42040894588735 L 1306 421.19045186830294 L 1307 420.9555025857639 L 1308 420.7156222179864 L 1309 420.4708731674594 L 1310 420.2213191032111 L 1311 419.96702494424636 L 1312 419.7080568426583 L 1313 419.4444821664198 L 1314 419.1763694818581 L 1315 418.9037885358183 L 1316 418.6268102375192 L 1317 418.3455066401068 L 1318 418.05995092191085 L 1319 417.7702173674078 L 1320 417.47638134789673 L 1321 417.1785193018921 L 1322 416.876708715239 L 1323 416.57102810095614 L 1324 416.2615569788114 L 1325 415.9483758546355 L 1326 415.63156619937917 L 1327 415.31121042791943 L 1328 414.9873918776201 L 1329 414.66019478665254 L 1330 414.3297042720816 L 1331 413.9960063077237 L 1332 413.6591877017813 L 1333 413.3193360742607 L 1334 412.97653983417854 L 1335 412.63088815656306 L 1336 412.2824709592562 L 1337 411.9313788795223 L 1338 411.57770325046977 L 1339 411.2215360772916 L 1340 410.8629700133311 L 1341 410.50209833597927 L 1342 410.1390149224094 L 1343 409.77381422515583 L 1344 409.4065912475434 L 1345 409.03744151897286 L 1346 408.66646107007017 L 1347 408.2937464077048 L 1348 407.9193944898848 L 1349 407.54350270053357 L 1350 407.1661688241572 L 1351 406.7874910204059 L 1352 406.4075677985397 L 1353 406.02649799180114 L 1354 405.6443807317061 L 1355 405.2613154222545 L 1356 404.87740171407205 L 1357 404.4927394784869 L 1358 404.1074287815491 L 1359 403.72156985799967 L 1360 403.3352630851951 L 1361 402.9486089569954 L 1362 402.56170805762184 L 1363 402.17466103549066 L 1364 401.7875685770303 L 1365 401.40053138048927 L 1366 401.0136501297401 L 1367 400.62702546808754 L 1368 400.2407579720873 L 1369 399.8549481253822 L 1370 399.4696962925617 L 1371 399.08510269305395 L 1372 398.701267375054 L 1373 398.3182901894976 L 1374 397.93627076408586 L 1375 397.55530847736816 L 1376 397.17550243288963 L 1377 396.7969514334109 L 1378 396.41975395520467 L 1379 396.04400812243887 L 1380 395.6698116816501 L 1381 395.29726197631624 L 1382 394.92645592153326 L 1383 394.5574899788038 L 1384 394.1904601309436 L 1385 393.82546185711294 L 1386 393.462590107978 L 1387 393.1019392810107 L 1388 392.74360319593245 L 1389 392.3876750703074 L 1390 392.03424749529313 L 1391 391.6834124115538 L 1392 391.3352610853428 L 1393 390.98988408476083 L 1394 390.6473712561953 L 1395 390.30781170094775 L 1396 389.97129375205526 L 1397 389.63790495131104 L 1398 389.30773202649186 L 1399 388.980860868796 L 1400 388.65737651050046 L 1401 388.3373631028396 L 1402 388.0209038941148 L 1403 387.7080812080378 L 1404 387.3989764223154 L 1405 387.09366994747944 L 1406 386.79224120596916 L 1407 386.49476861147 L 1408 386.2013295485153 L 1409 385.912000352355 L 1410 385.62685628909855 L 1411 385.34597153613436 L 1412 385.06941916283404 L 1413 384.7972711115434 L 1414 384.52959817886807 L 1415 384.26646999725585 L 1416 384.00795501688316 L 1417 383.7541204878477 L 1418 383.5050324426745 L 1419 383.2607556791382 L 1420 383.02135374340617 L 1421 382.78688891350816 L 1422 382.5574221831348 L 1423 382.3330132457709 L 1424 382.113720479167 L 1425 381.8996009301525 L 1426 381.6907102997959 L 1427 381.48710292891457 L 1428 381.28883178393846 L 1429 381.0959484431316 L 1430 380.9085030831743 L 1431 380.7265444661105 L 1432 380.5501199266624 L 1433 380.3792753599171 L 1434 380.2140552093873 L 1435 380.05450245545 L 1436 379.9006586041653 L 1437 379.75256367647904 L 1438 379.610256197812 L 1439 379.4737731880377 L 1440 379.3431501518519 L 1441 379.2184210695368 L 1442 379.09961838812114 L 1443 378.9867730129394 L 1444 378.87991429959226 L 1445 378.7790700463098 L 1446 378.6842664867204 L 1447 378.595528283026 L 1448 378.51287851958665 L 1449 378.43633869691524 L 1450 378.36592872608446 L 1451 378.30166692354715 L 1452 378.2435700063712 L 1453 378.1916530878912 L 1454 378.14592967377644 L 1455 378.1064116585178 L 1456 378.07310932233344 L 1457 378.0460313284945 L 1458 378.02518472107135 L 1459 378.01057492310144 L 1460 378.00220573517817 L 1461 378.00007933446244 L 1462 378.0041962741162 L 1463 378.01455548315863 L 1464 378.03115426674464 L 1465 378.05398830686596 L 1466 378.0830516634745 L 1467 378.1183367760274 L 1468 378.1598344654539 L 1469 378.20753393654354 L 1470 378.2614227807537 L 1471 378.32148697943836 L 1472 378.38771090749424 L 1473 378.46007733742596 L 1474 378.5385674438274 L 1475 378.62316080827895 L 1476 378.71383542465924 L 1477 378.81056770486987 L 1478 378.9133324849712 L 1479 379.02210303172916 L 1480 379.13685104956915 L 1481 379.25754668793695 L 1482 379.3841585490641 L 1483 379.5166536961358 L 1484 379.6549976618589 L 1485 379.79915445742836 L 1486 379.9490865818893 L 1487 380.1047550318925 L 1488 380.266119311841 L 1489 380.4331374444242 L 1490 380.60576598153796 L 1491 380.7839600155875 L 1492 380.96767319116935 L 1493 381.1568577171302 L 1494 381.35146437899954 L 1495 381.5514425517922 L 1496 381.756740213178 L 1497 381.9673039570145 L 1498 382.1830790072407 L 1499 382.40400923212593 L 1500 382.6300371588722 L 1501 382.86110398856516 L 1502 383.09714961147006 L 1503 383.3381126226686 L 1504 383.5839303380329 L 1505 383.8345388105323 L 1506 384.0898728468681 L 1507 384.3498660244335 L 1508 384.6144507085923 L 1509 384.8835580702736 L 1510 385.1571181038771 L 1511 385.4350596454842 L 1512 385.7173103913705 L 1513 386.00379691681525 L 1514 386.2944446952016 L 1515 386.5891781174043 L 1516 386.88792051145856 L 1517 387.19059416250536 L 1518 387.49712033300847 L 1519 387.80741928323704 L 1520 388.12141029200905 L 1521 388.4390116776904 L 1522 388.7601408194432 L 1523 389.08471417871925 L 1524 389.4126473209909 L 1525 389.74385493771695 L 1526 390.07825086853404 L 1527 390.4157481236707 L 1528 390.7562589065768 L 1529 391.099694636763 L 1530 391.445965972844 L 1531 391.79498283578 L 1532 392.14665443230945 L 1533 392.50088927856854 L 1534 392.8575952238895 L 1535 393.2166794747728 L 1536 393.57804861902616 L 1537 393.9416086500654 L 1538 394.30726499136875 L 1539 394.6749225210803" stroke-linecap="round" stroke-linejoin="round" stroke-miterlimit="10" stroke-width="6"/></g></svg>